<svg transform="scale(4)" version="1.1" id="Layer_1" xmlns="http://www.w3.org/2000/svg" xmlns:xlink="http://www.w3.org/1999/xlink" x="0px" y="0px" viewBox="0 0 500 500" xml:space="preserve" class="show_show__wrapper__graphic__5Waiy "><title>React</title><style type="text/css">
	.st0{fill:#FFA71F;}
	.st1{opacity:0.32;fill:url(#SVGID_1_);enable-background:new    ;}
	.st2{opacity:0.32;fill:url(#SVGID_00000017496561706017962000000000211862070723950216_);enable-background:new    ;}
	.st3{opacity:0.32;fill:url(#SVGID_00000131366799070459802360000015937265649362459822_);enable-background:new    ;}
	.st4{fill:#a968f9;}
	.st5{opacity:0.5;fill:#42342D;enable-background:new    ;}
	.st6{fill:#F2F2F2;}
	.st7{fill:#42342D;}
	.st8{fill:#FFC6B2;}
	.st9{fill:#F15A24;}
	.st10{fill:#05C69F;}
	.st11{fill:#08B58C;}
	.st12{fill:#FFB39C;}
	.st13{fill:#68E1FD;}
	.st14{fill:none;}
</style><polygon class="st0" id="Base" points="50.5,318.4 242.3,202.2 449.5,318.4 260.5,429 "></polygon><g id="Shadow"><linearGradient id="SVGID_1_" gradientUnits="userSpaceOnUse" x1="188.978" y1="-792.5315" x2="208.0979" y2="-812.5715" gradientTransform="matrix(1 0 0 1 0 1164.6299)"><stop offset="0" style="stop-color: rgb(242, 242, 242); stop-opacity: 0;"></stop><stop offset="1" style="stop-color: rgb(241, 90, 36);"></stop></linearGradient><path class="st1" d="M275,341.6c-9.7-5.1-63.1-9.4-72-15.7c-1.9-1.4,4.2-6.6,4.1-8.5l-59.4,38.2l52.5,28.7L275,341.6z"></path><linearGradient id="SVGID_00000133523613180989312620000008817860209772101300_" gradientUnits="userSpaceOnUse" x1="98.2779" y1="-824.1731" x2="110.7779" y2="-838.323" gradientTransform="matrix(1 0 0 1 0 1164.6299)"><stop offset="0" style="stop-color: rgb(242, 242, 242); stop-opacity: 0;"></stop><stop offset="1" style="stop-color: rgb(241, 90, 36);"></stop></linearGradient><path d="
		M124.3,311.6c-1.7-1.2-2.8-3-3-5.1l-41.5,26.7l26.7,14.7l0,0c0.1-0.5,33-25.9,33-25.9C129.8,316.9,133.2,317.9,124.3,311.6z" style="opacity: 0.32; fill: url(&quot;#SVGID_00000133523613180989312620000008817860209772101300_&quot;);"></path><linearGradient id="SVGID_00000137827511430846544370000004001593353801050281_" gradientUnits="userSpaceOnUse" x1="297.1144" y1="-796.6318" x2="348.8245" y2="-824.8418" gradientTransform="matrix(1 0 0 1 0 1164.6299)"><stop offset="0" style="stop-color: rgb(242, 242, 242); stop-opacity: 0;"></stop><stop offset="1" style="stop-color: rgb(241, 90, 36);"></stop></linearGradient><path d="
		M384.2,325.4c-0.2-0.3-0.2-0.7,0-1c0.2-0.4-5.1-1.4-4.9-1.8c0.3-0.9-3.1-1-2.9-1.9c-8.9-3.9-10.7-5.3-17.5-11.8l-66.3,42.6
		l37.5,23.8l50.7-31.3C381.2,343.2,395,337.2,384.2,325.4z" style="opacity: 0.32; fill: url(&quot;#SVGID_00000137827511430846544370000004001593353801050281_&quot;);"></path></g><g id="Enter_Button"><path class="st4" d="M192.2,324l56-32.6c1.1-0.6,2.5-0.6,3.6,0l32,17.8c1.3,0.8,1.8,2.5,1.1,3.8c-0.3,0.4-0.6,0.8-1.1,1.1
		l-21.6,12.7c-0.9,0.5-1.2,1.7-0.7,2.6c0.2,0.3,0.4,0.6,0.8,0.7l12.6,6.7c1.3,0.7,1.8,2.4,1.1,3.7c-0.2,0.4-0.6,0.8-1.1,1.1l-30,17
		c-1.5,0.9-3.5,0.9-5,0L192,329.8c-1.6-0.9-2.1-3-1.2-4.5C191.2,324.7,191.6,324.3,192.2,324z"></path><path class="st4" d="M190.6,326.6c0.1-0.4,0-11.5,0-11.5l11,5.7L190.6,326.6z"></path><polygon class="st4" points="276.4,339.1 276.4,327.7 266.4,334 	"></polygon><polygon class="st4" points="285.3,311.2 285.3,300 274.4,306 278.6,309.8 	"></polygon><path class="st5" d="M285.3,300l-9,5l-24.4-13.6c-1.1-0.6-2.5-0.6-3.6,0l-48.7,28.3l-9-4.7c0,0,0.1,8.2,0,10.7
		c-0.6,1.5,0,3.2,1.4,4l47.8,28.9c1.5,0.9,3.5,0.9,5,0l30-17c1-0.5,1.5-1.6,1.4-2.6l0.1,0.1v-11.4l-8.7,5.4l-5.4-2.9
		c-0.3-0.2-0.6-0.4-0.8-0.7c-0.5-0.9-0.2-2.1,0.7-2.6l21.6-12.7c0.4-0.3,0.8-0.6,1.1-1.1c0.3-0.6,0.4-1.2,0.3-1.9h0.1L285.3,300z"></path><path class="st4" d="M192.2,312.6l56-32.6c1.1-0.6,2.5-0.6,3.6,0l32,17.8c1.3,0.8,1.8,2.5,1.1,3.8c0,0,0,0,0,0
		c-0.3,0.4-0.6,0.8-1.1,1.1l-21.6,12.7c-0.9,0.5-1.2,1.7-0.7,2.6c0.2,0.3,0.4,0.6,0.8,0.7l12.6,6.7c1.3,0.7,1.8,2.4,1.1,3.7
		c-0.2,0.4-0.6,0.8-1.1,1.1l-30,17c-1.5,0.9-3.5,0.9-5,0L192,318.4c-1.6-0.9-2.1-3-1.1-4.5C191.2,313.3,191.6,312.9,192.2,312.6
		L192.2,312.6z"></path><path class="st6" d="M229.4,314l2.3,1.4l-7.4,4.1l-11.7-7.6l7.1-3.9l2.3,1.4l-5,2.8l2.4,1.5l3.9-2.2l2.3,1.4l-4,2.2l2.6,1.7
		L229.4,314z"></path><path class="st6" d="M227.8,309c0-0.1-0.1-0.2-0.1-0.3c0-0.6,0.3-1.2,0.9-1.5c0.9-0.4,1.9-0.6,2.9-0.4c1.2,0.2,2.4,0.6,3.4,1.3
		l4.9,3.1l-1.9,1l-4.6-2.9c-0.5-0.3-1-0.5-1.6-0.6c-0.5-0.1-1,0-1.4,0.2c-0.4,0.2-0.6,0.5-0.5,0.9c0.2,0.5,0.6,0.9,1.1,1.1l4.3,2.8
		l-1.9,1l-8.4-5.3l1.9-1L227.8,309z"></path><path class="st6" d="M231.5,302.7l1.7-0.9l2.7,1.6l1.4-0.8l2.1,1.3l-1.4,0.8l3.4,2.1c0.3,0.2,0.6,0.3,0.9,0.3
		c0.3,0.1,0.6,0,0.9-0.1c0.1-0.1,0.2-0.1,0.3-0.2c0.1-0.1,0.1-0.1,0.2-0.2l0,0l2,1.2c-0.3,0.4-0.6,0.7-1,0.9
		c-1.5,0.8-3.2,0.6-5.1-0.6l-3.4-2.2l-1.2,0.7l-2.1-1.3l0.6-0.4c0.2-0.1,0.3-0.3,0.2-0.5c-0.1-0.3-0.3-0.5-0.6-0.6L231.5,302.7z"></path><path class="st6" d="M244.7,304.2c0.6,0.3,1.2,0.4,1.8,0.4c0.6,0,1.2-0.1,1.7-0.4c0.3-0.1,0.6-0.4,0.7-0.7c0.1-0.2,0.2-0.4,0.1-0.7
		v-0.3l2.5,0.4v0.2c0,0.1,0,0.3,0,0.4c0,0.2-0.1,0.4-0.1,0.6c-0.1,0.3-0.3,0.5-0.5,0.7c-0.3,0.3-0.6,0.5-0.9,0.7
		c-1.2,0.6-2.6,0.8-3.9,0.6c-1.5-0.1-2.9-0.6-4.2-1.3c-1-0.5-1.8-1.4-2.1-2.5c-0.2-0.9,0.3-1.8,1.2-2.2c1.1-0.6,2.4-0.8,3.6-0.6
		c1.4,0.1,2.8,0.6,4,1.3l0.9,0.6L244.7,304.2z M242.5,302.2c0.1,0.4,0.2,0.7,0.6,1l3.1-1.7c-0.5-0.2-1.1-0.4-1.6-0.4
		c-0.5,0-1,0.1-1.4,0.3C242.8,301.5,242.6,301.8,242.5,302.2L242.5,302.2z"></path><path class="st6" d="M252.4,296.6c-0.2,0.1-0.5,0.2-0.7,0.3c-0.5,0.3-0.7,0.6-0.6,1c0.3,0.6,0.7,1,1.3,1.3l4.1,2.5l-1.9,1l-8.6-5.2
		l1.9-1l1.1,0.6c0-0.1,0-0.2-0.1-0.3c0-0.2,0-0.5,0.1-0.7c0.1-0.3,0.4-0.6,0.7-0.8l0.3-0.2L252.4,296.6z"></path></g><g id="Character_2"><path class="st7" d="M146.8,170.3l4.8-8.4c0.2-0.3,0-0.6-0.2-0.8c0,0,0,0,0,0c-0.2-0.1-0.3-0.1-0.5,0l-6.5,2.7
		c-0.5,0.2-0.9,0.6-1.1,1l-4.4,7.8l0,0C141.4,171.6,144.1,171.1,146.8,170.3z"></path><path class="st8" d="M132.6,176.1c0,0,2.9-5.2,3.8-5.7c1-0.7,2.2-1.2,3.4-1.4c0.7,0.2,0,2,0,2s7-1.8,7.7-1.3s-0.7,3-2,4.4
		s-10.6,6-10.6,6L132.6,176.1z"></path><path class="st7" d="M124.3,121.2c0,0-8.5-0.8-13,5.8c-4.5,6.6-14.9,31.2-12.2,33.3s17.3,4.4,24.4,2.4c7.1-2.1,6.9-18.7,6.9-18.7"></path><path class="st7" d="M126.8,292.6c0,0-0.5,12.6,1.9,16.4c2.3,3.8,13.8,10.2,10.8,13s-10.2,1.4-12.6-1.6c-1.5-2.1-2.9-4.3-4.2-6.5
		v4.8c-1.6-0.9-3.2-1.9-4.8-3c0-0.2-1.1-28.5-1.1-28.5"></path><path class="st7" d="M109.4,297.9c0,0-0.5,12.6,1.9,16.4s14.4,12.5,11.4,15.2s-10.2,0.2-13.2-3.5c-1.7-2.2-3.1-4.5-4.3-6.9v4.8
		c-1.7-0.9-3.3-1.9-4.8-3c0-0.2-1.1-28.4-1.1-28.4"></path><path class="st9" d="M132.2,191.7c0.6,1.6,6.2,94,0.3,105.7c-4.8,2.5-10.3,3.7-15.7,3.3l-1.9,6.9c0,0-14.6,4.5-25.1,0.1
		c0,0,5-96.2,12.5-114.1"></path><path class="st10" d="M134.4,172.2c0.1-2.5,0.2-5.1,0.3-7.6c0.1-4.6,1.1-10.9-2.1-14.6c-2.1-2.5-5.6-2.9-8.4-3.9
		c-1.3-0.4-2.6-0.7-3.9-0.6c-0.9,0.1-1.7,0.3-2.6,0.6c-3.2,0-7.3,2.6-10.2,4c-1.4,0.7-2.2,5.2-3.4,6.2c-2.6,6.3-3.2,6.8-3.4,13.7
		c-0.1,0.1-0.1,0.2-0.2,0.4c-0.7,2.1-0.3,9.6,0.2,16.7v0.3c0.2,3.2,0.5,6.4,0.8,8.9c9.8,3.9,20.8,2.6,30.8-0.6
		c0.8-0.2,1.1-11.1,1.3-12.4C133.8,179.5,134.2,175.9,134.4,172.2z"></path><path class="st8" d="M132.8,129.9c0.4,0.2-1.6,20-9.5,18.1s-7.9-8.4-7.7-10.1s3.9-5.8,5.1-7.4S131,128.9,132.8,129.9z"></path><path class="st7" d="M134.7,127.8c-1-5-9.8-8.8-17.9-5c-5,2.4-10,16.1-4.4,18.9s4.2,1.4,4.2,1.4c-0.1-0.3-0.2-0.7-0.2-1
		c-0.1-0.1-0.1-0.3-0.1-0.4V141c0.3-3.7,1.8-7.2,4.2-10c2.5-2.5,5.8-2.3,9.1-1.9c1.1,0.1,2.1,0.3,3.1,0.6l-0.5,5.1
		C134.4,133.3,135.4,130.4,134.7,127.8z"></path><path class="st7" d="M132.8,133.1l-7.4-0.6v-2.4l-1.4,2.6l-2.1-0.5c0,0-3.6,11.3-5.3,11s-2.4-5.8-1.8-8.7s4.1-8.5,10-8.6
		C130.6,125.8,134.1,127.8,132.8,133.1z"></path><path class="st11" d="M122.3,174.9c-2.8,0.8-5.7,1.5-8.6,1.9c-0.9,0-2-0.2-2.4-1.1c-0.1-0.3-0.1-0.7,0-1c0.3-3.9,0.7-7.9,1.5-11.8
		c0.5-3.5,1.1-8.2-0.6-11.5c-2.6-4.8-7.6-0.3-9.5,2.7c-3.1,4.9-3.5,11.8-3.7,17.4c-0.8,19.1,3.9,19.9,10.3,19.7s26.1-5,26.3-7.6
		c0.1-1.7-1.4-6.4-3-9.5C131.8,172.7,127,173.7,122.3,174.9z"></path><path class="st6" d="M122,213.8c-0.9,29.1-2.9,58.1-6,87c-0.1,0.9,1.3,0.9,1.4,0c3-28.9,5-57.9,6-87c0-0.4-0.3-0.7-0.7-0.7
		C122.3,213.1,122,213.4,122,213.8z"></path></g><g id="Character_1"><path class="st12" d="M351.5,202.8c0,0.1,5.3-9.1,4.5-17.4s-11.2-2.3-11.2-2.3"></path><path class="st13" d="M354.5,161.4c0,0-8.9,4.3-9.8,23.8c0,0,9.3,1.8,13.4,0.8"></path><path class="st8" d="M371.4,247.4c0,0,3,24.6,4.7,30.8s3.2,45.8,3.2,45.8s5.3,3.8,9.8,0c0,0,2.4-32,1.1-40.5s0-42.2,0-42.2"></path><path class="st8" d="M354.1,240.4c0,0-0.6,18.1,0,24.1s3.2,43.8,3.2,43.8c2.5,2.2,6.2,2.2,8.8,0c0,0,2.9-18.7,2.5-22.3
		s-1-48.8-1-48.8"></path><path class="st0" d="M372.7,150.1c0,0.1,21.9,19.8,15.3,26.9s-15.3-2.6-15.3-2.6l-2.8-22.4"></path><path class="st6" d="M371.4,338.2c-0.9,1.9-0.5,4.2,1,5.7c2.5,2.7,5.8,1.4,8.6,0s10.7-8.4,9.6-10.2s-1.5-9.6-1.5-9.6"></path><path class="st13" d="M379.2,321.1c0,0-1.3,7.3-3.1,9.6s-6.1,8.1-4.7,9.6s2.4-3,4.7-1.7s1.6,4.5,3.2,3.9s9.4-6.8,10.2-10.7
		s-1.1-10.8-1.1-10.8"></path><path class="st6" d="M343.8,319c0,0-0.3,4.3,3.6,5.2s8.8-1.6,11-2.6s10.2-7.8,10.2-7.8l-1-9.5"></path><path class="st13" d="M357,303.7c0,0-2.4,5.9-6.6,8s-7.6,6.5-6.6,7.2s3-2,4.1-1.3s1.1,4.2,2.4,3.4s4.2,1.4,8.1-1.3s2.7-3.8,6-5
		s3.3-10.4,3.3-10.4S359.4,306.2,357,303.7z"></path><path class="st9" d="M353.4,207.5c-2,5.9-3.1,12-3.4,18.2c-0.6,11,3.9,75.2,3.9,75.2c6.6,2.4,13.7,2.8,20.5,1.1v14.7
		c0,0,11.3,3.7,23.6-4.2c0,0-2-92.2-15.4-103.7"></path><path class="st13" d="M383.5,168.5c-1.8-6.3-11.9-8.5-23.4-8.2c-1.9,0-3.8,0.4-5.6,1.2c-4,5.8-3.1,13.7-2.5,20.3
		c0.7,7.5,0.8,20.8,1.4,25.7c10.3,5.3,26.4,1.8,29.2,1.2C382.6,208.7,385.3,174.8,383.5,168.5z"></path><path class="st12" d="M368,155.5l0.6,5.9c0,0-4,2.5-7.6,0.8l-0.5-3.7"></path><path class="st0" d="M359.2,153.8c-9.2,1.1-8.5-6.4-8.5-6.4c-1.5-15.6,15.2-12.6,15.2-12.6s12.6,3,4.8,18.6"></path><path class="st8" d="M352.4,141.8c0,0,0.7,19.3,8.6,18.4s7.5-7.5,7.5-7.5s1.1-12-5.4-14.3S352.4,141.8,352.4,141.8z"></path><path class="st0" d="M352.4,141.8c0,0,4.6,6.9,10.3,6.4s5.3,7.3,5.3,7.3c3.6-2,5.7-5.9,5.4-10c0-4.2-6-11.2-11.5-10.9
		S351.2,137.9,352.4,141.8z"></path><path class="st8" d="M376.7,213c2.2,0.8,4.6,1.4,7,1.5c0.6-2.2,0.9-4.4,1.2-6.7c0,0,13.5-11.8,12-17.9s-13.2-22.7-13.4-22.7
		c-4.9,0.6-6.6,11.2-5.8,13.2s7,7.6,6.9,10.6s-5.9,13.1-6.2,14.5s-7.8,3.5-6.9,5.2c1.1,2.2,6.1-0.4,6.1-0.4S377.1,211.5,376.7,213z"></path><path class="st13" d="M380.4,164c4.6,4.1,8.5,8.9,11.6,14.2c0,0-5.5,7.3-11,9.1s0-0.8,0-0.8s-5.6-3.9-6.6-7.3S380.4,164,380.4,164z
		"></path><path class="st7" d="M337.7,170.3c-0.1-0.5,0.2-1,0.7-1.2c0.3-0.1,0.5,0,0.8,0.1c2.5,1.7,6.4,4.2,6.3,4.2s3.2,12,3.2,12l-8.5-5.1
		L337.7,170.3z"></path><path class="st8" d="M345.7,187.9c0,0,4.2-2.2,4.3-3.9s-2.1-4.9-3.2-5.5s-5.5,2.6-5.5,2.6l-2.1-4.5c-0.5,0.9-0.7,2-0.7,3
		c0.1,1.4,0.7,11.3,2.2,12.6s5.9,1.1,6.1,0S345.7,187.9,345.7,187.9z"></path><path class="st8" d="M339.6,189.6c0,0,2.4,13.1,5.1,15c2.3,1.4,5.2,0.7,6.6-1.6c0.7-1.1,0.9-2.3,0.6-3.6c-0.8-5.1-6.1-13-6.1-13"></path><path class="st7" d="M369.3,230.3c-0.1-0.9-1.5-0.9-1.4,0c2.6,24.6,4.7,49.3,6.2,74c0,0.4,0.3,0.7,0.7,0.7c0.4,0,0.7-0.3,0.7-0.7
		C374,279.6,371.9,254.9,369.3,230.3z"></path></g><g id="Chat_Bubble"><path class="st13" d="M320.5,114.8L245,71.4c-1.5-0.9-3.5-0.4-4.3,1.2c-0.3,0.5-0.4,1.1-0.4,1.6v28c0,2.8,1.5,5.3,3.9,6.6l73.3,41
		c1.5,0.9,3.5,0.3,4.3-1.2c0.3-0.5,0.4-1,0.4-1.6v-29.5C322.2,116.4,321.5,115.4,320.5,114.8z"></path><polyline class="st13" points="315.2,143.9 315.2,160.3 301.5,139.9 	"></polyline><line class="st14" x1="250.1" y1="86.2" x2="290.2" y2="108.6"></line><path class="st6" d="M249.1,88.1l40.1,22.4c2.4,1.3,4.5-2.3,2.1-3.6l-40.1-22.4C248.8,83.1,246.7,86.8,249.1,88.1z"></path><line class="st14" x1="248.4" y1="97.4" x2="309" y2="131.3"></line><path class="st6" d="M247.3,99.3l60.7,33.8c2.4,1.3,4.5-2.3,2.1-3.6l-60.7-33.8C247.1,94.3,245,97.9,247.3,99.3L247.3,99.3z"></path><path class="st13" d="M313.8,236.7l-75.6-43.4c-1.5-0.9-3.5-0.4-4.3,1.2c-0.3,0.5-0.4,1.1-0.4,1.6v28c0,2.8,1.5,5.3,3.9,6.7
		l73.3,41c1.5,0.9,3.5,0.3,4.3-1.2c0.3-0.5,0.4-1,0.4-1.6v-29.5C315.4,238.3,314.8,237.2,313.8,236.7z"></path><polyline class="st13" points="308.4,265.8 308.4,282.1 294.7,261.8 	"></polyline><line class="st14" x1="242.8" y1="210" x2="282.9" y2="232.4"></line><path class="st6" d="M241.7,211.8l40.1,22.4c2.4,1.3,4.5-2.3,2.1-3.6l-40.1-22.4C241.5,206.9,239.4,210.5,241.7,211.8z"></path><line class="st14" x1="241.1" y1="221.2" x2="301.7" y2="255"></line><path class="st6" d="M240,223l60.6,33.8c2.4,1.3,4.5-2.3,2.1-3.6l-60.7-33.7C239.7,218.1,237.6,221.8,240,223L240,223z"></path><path class="st10" d="M177.8,175.9l75.6-43.4c1.5-0.9,3.4-0.4,4.3,1.1c0,0,0,0,0,0c0.3,0.5,0.4,1.1,0.4,1.6v28
		c0,2.7-1.5,5.3-3.9,6.6l-73.4,41c-1.5,0.9-3.4,0.3-4.3-1.2c0,0,0,0,0,0c-0.3-0.5-0.4-1-0.4-1.6v-29.5
		C176.2,177.5,176.8,176.5,177.8,175.9z"></path><polyline class="st10" points="183.1,205 183.1,221.4 196.8,201 	"></polyline><line class="st14" x1="247.2" y1="151.4" x2="207.1" y2="173.8"></line><path class="st6" d="M246.2,149.6L206,172c-2.4,1.3-0.2,4.9,2.1,3.6l40.1-22.4C250.6,151.9,248.5,148.3,246.2,149.6z"></path><line class="st14" x1="249" y1="162.6" x2="188.3" y2="196.4"></line><path class="st6" d="M247.9,160.8l-60.6,33.8c-2.4,1.3-0.3,4.9,2.1,3.6l60.6-33.8C252.4,163.1,250.2,159.5,247.9,160.8L247.9,160.8
		z"></path></g></svg>