<svg width="248" height="248" viewBox="0 0 248 248" fill="none" xmlns="http://www.w3.org/2000/svg">
<mask id="mask0_0_8103" style="mask-type:luminance" maskUnits="userSpaceOnUse" x="0" y="0" width="248" height="248">
<path fill-rule="evenodd" clip-rule="evenodd" d="M56.4986 0.171234C50.9769 0.367508 43.8604 0.799515 40.6258 1.45236C35.6883 2.44945 31.0254 3.9612 27.1477 5.93756C22.5917 8.25943 18.5084 11.2219 14.9826 14.7422C11.4487 18.2693 8.4744 22.3564 6.1432 26.9192C4.17234 30.7761 2.66145 35.4106 1.66013 40.3201C0.994129 43.5874 0.553664 50.7569 0.353992 56.3142C0.273021 58.5856 0.231476 61.5252 0.231476 62.8809L0.211975 184.793C0.211975 186.144 0.253096 189.084 0.333643 191.358C0.529924 196.879 0.96191 203.996 1.61519 207.23C2.61185 212.168 4.12402 216.831 6.09996 220.709C8.42226 225.265 11.3843 229.347 14.9046 232.874C18.4317 236.407 22.5193 239.381 27.0816 241.713C30.939 243.683 35.5734 245.195 40.4825 246.196C43.7498 246.862 50.9197 247.303 56.477 247.502C58.7476 247.583 61.6876 247.625 63.0433 247.625L184.956 247.644C186.307 247.644 189.247 247.604 191.52 247.523C197.042 247.326 204.159 246.894 207.393 246.241C212.33 245.244 216.994 243.732 220.871 241.756C225.427 239.434 229.51 236.472 233.036 232.952C236.57 229.424 239.544 225.337 241.875 220.775C243.846 216.917 245.358 212.283 246.359 207.374C247.025 204.107 247.465 196.936 247.665 191.379C247.746 189.108 247.787 186.169 247.787 184.813L247.807 62.9004C247.807 61.5498 247.766 58.6094 247.685 56.3358C247.488 50.8145 247.057 43.698 246.403 40.4634C245.407 35.5259 243.895 30.863 241.919 26.9853C239.597 22.4289 236.634 18.346 233.114 14.8198C229.587 11.2867 225.499 8.31201 220.937 5.9808C217.08 4.00995 212.446 2.49863 207.536 1.49773C204.269 0.831726 197.099 0.391266 191.542 0.192017C189.271 0.110199 186.331 0.0690765 184.975 0.0690765L63.0628 0.0495758C61.7122 0.0495758 58.7718 0.0902557 56.4986 0.171234Z" fill="white"/>
</mask>
<g mask="url(#mask0_0_8103)">
<path d="M56.4986 0.171234C50.9769 0.367508 43.8604 0.799515 40.6258 1.45236C35.6883 2.44945 31.0254 3.9612 27.1477 5.93756C22.5917 8.25943 18.5084 11.2219 14.9826 14.7422C11.4487 18.2693 8.4744 22.3564 6.1432 26.9192C4.17234 30.7761 2.66145 35.4106 1.66013 40.3201C0.994129 43.5874 0.553664 50.7569 0.353992 56.3142C0.273021 58.5856 0.231476 61.5252 0.231476 62.8809L0.211975 184.793C0.211975 186.144 0.253096 189.084 0.333643 191.358C0.529924 196.879 0.96191 203.996 1.61519 207.23C2.61185 212.168 4.12402 216.831 6.09996 220.709C8.42226 225.265 11.3843 229.347 14.9046 232.874C18.4317 236.407 22.5193 239.381 27.0816 241.713C30.939 243.683 35.5734 245.195 40.4825 246.196C43.7498 246.862 50.9197 247.303 56.477 247.502C58.7476 247.583 61.6876 247.625 63.0433 247.625L184.956 247.644C186.307 247.644 189.247 247.604 191.52 247.523C197.042 247.326 204.159 246.894 207.393 246.241C212.33 245.244 216.994 243.732 220.871 241.756C225.427 239.434 229.51 236.472 233.036 232.952C236.57 229.424 239.544 225.337 241.875 220.775C243.846 216.917 245.358 212.283 246.359 207.374C247.025 204.107 247.465 196.936 247.665 191.379C247.746 189.108 247.787 186.169 247.787 184.813L247.807 62.9004C247.807 61.5498 247.766 58.6094 247.685 56.3358C247.488 50.8145 247.057 43.698 246.403 40.4634C245.407 35.5259 243.895 30.863 241.919 26.9853C239.597 22.4289 236.634 18.346 233.114 14.8198C229.587 11.2867 225.499 8.31201 220.937 5.9808C217.08 4.00995 212.446 2.49863 207.536 1.49773C204.269 0.831726 197.099 0.391266 191.542 0.192017C189.271 0.110199 186.331 0.0690765 184.975 0.0690765L63.0628 0.0495758C61.7122 0.0495758 58.7718 0.0902557 56.4986 0.171234Z" fill="url(#paint0_linear_0_8103)"/>
<path fill-rule="evenodd" clip-rule="evenodd" d="M166.93 140.143C164.724 139.039 153.882 133.706 151.86 132.97C149.839 132.235 148.369 131.867 146.899 134.074C145.429 136.281 141.203 141.246 139.916 142.718C138.63 144.189 137.344 144.373 135.138 143.269C132.933 142.166 125.828 139.838 117.405 132.327C110.849 126.482 106.423 119.262 105.136 117.055C103.85 114.848 104.999 113.655 106.104 112.556C107.095 111.569 108.309 109.981 109.411 108.694C110.514 107.406 110.882 106.487 111.617 105.016C112.352 103.544 111.984 102.257 111.433 101.153C110.882 100.05 106.471 89.199 104.634 84.7851C102.844 80.4864 101.026 81.068 99.6719 81.0006C98.387 80.9366 96.9155 80.923 95.4453 80.923C93.9751 80.923 91.5863 81.475 89.5645 83.6816C87.5432 85.8885 81.8464 91.2225 81.8464 102.073C81.8464 112.924 89.7485 123.407 90.8512 124.878C91.9538 126.35 106.401 148.617 128.523 158.166C133.784 160.438 137.892 161.794 141.095 162.811C146.378 164.488 151.185 164.251 154.985 163.684C159.222 163.051 168.032 158.35 169.87 153.201C171.707 148.051 171.707 143.637 171.156 142.718C170.605 141.798 169.135 141.246 166.93 140.143ZM126.692 195.065H126.662C113.499 195.06 100.589 191.525 89.3263 184.844L86.6475 183.254L58.8838 190.535L66.2945 163.474L64.55 160.7C57.2071 149.024 53.329 135.529 53.3345 121.673C53.3506 81.2397 86.2583 48.3447 126.721 48.3447C146.315 48.3524 164.733 55.9903 178.583 69.8512C192.432 83.7125 200.056 102.137 200.048 121.732C200.031 162.168 167.124 195.065 126.692 195.065ZM189.124 59.3186C172.461 42.6416 150.301 33.4529 126.691 33.4435C78.0451 33.4435 38.4528 73.0205 38.4333 121.667C38.4269 137.217 42.4908 152.397 50.2139 165.776L37.6931 211.496L84.4799 199.228C97.3708 206.256 111.885 209.96 126.656 209.967H126.692H126.692C175.334 209.967 214.93 170.384 214.95 121.737C214.958 98.1626 205.787 75.9953 189.124 59.3186Z" fill="white"/>
</g>
<defs>
<linearGradient id="paint0_linear_0_8103" x1="0.211709" y1="247.644" x2="0.211709" y2="0.0492913" gradientUnits="userSpaceOnUse">
<stop stop-color="#25CF43"/>
<stop offset="1" stop-color="#61FD7D"/>
</linearGradient>
</defs>
</svg>
