<svg xmlns="http://www.w3.org/2000/svg" version="1.1" xmlns:xlink="http://www.w3.org/1999/xlink" width="1000" height="1000"><g clip-path="url(#SvgjsClipPath1193)"><rect width="1000" height="1000" fill="#ffffff"></rect><g transform="matrix(2.331002331002331,0,0,2.331002331002331,0,301.86480186480185)"><svg xmlns="http://www.w3.org/2000/svg" version="1.1" xmlns:xlink="http://www.w3.org/1999/xlink" width="429" height="170"><svg width="429" height="170" viewBox="0 0 429 170" fill="none" xmlns="http://www.w3.org/2000/svg">
<rect width="429" height="170" fill="white"></rect>
<line x1="164" y1="102.75" x2="184" y2="102.75" stroke="black" stroke-width="0.5"></line>
<line x1="238" y1="102.75" x2="258" y2="102.75" stroke="black" stroke-width="0.5"></line>
<path d="M167.032 126V125.064H168.64V111.936H166.84V111H169.432C169.432 111.368 169.44 111.736 169.456 112.104C169.488 112.456 169.504 112.808 169.504 113.16C169.776 112.536 170.248 111.992 170.92 111.528C171.592 111.064 172.408 110.832 173.368 110.832C174.008 110.832 174.616 110.952 175.192 111.192C175.768 111.432 176.272 111.768 176.704 112.2C177.136 112.632 177.472 113.136 177.712 113.712C177.952 114.272 178.072 114.872 178.072 115.512C178.072 116.152 177.952 116.76 177.712 117.336C177.472 117.912 177.136 118.408 176.704 118.824C176.272 119.24 175.768 119.576 175.192 119.832C174.616 120.072 174.008 120.192 173.368 120.192C172.888 120.192 172.44 120.128 172.024 120C171.608 119.888 171.24 119.72 170.92 119.496C170.584 119.288 170.304 119.064 170.08 118.824C169.872 118.568 169.712 118.296 169.6 118.008C169.6 118.168 169.6 118.328 169.6 118.488C169.616 118.632 169.624 118.776 169.624 118.92V125.064H171.664V126H167.032ZM173.368 111.792C172.824 111.792 172.32 111.888 171.856 112.08C171.408 112.272 171.016 112.536 170.68 112.872C170.344 113.208 170.08 113.608 169.888 114.072C169.712 114.52 169.624 115 169.624 115.512C169.624 116.04 169.72 116.536 169.912 117C170.104 117.448 170.376 117.848 170.728 118.2C171.064 118.52 171.456 118.776 171.904 118.968C172.352 119.144 172.84 119.232 173.368 119.232C173.864 119.232 174.336 119.144 174.784 118.968C175.232 118.776 175.624 118.52 175.96 118.2C176.312 117.864 176.584 117.464 176.776 117C176.984 116.536 177.088 116.04 177.088 115.512C177.088 114.968 176.984 114.464 176.776 114C176.584 113.536 176.312 113.136 175.96 112.8C175.624 112.496 175.232 112.256 174.784 112.08C174.336 111.888 173.864 111.792 173.368 111.792ZM185.25 119.232C185.01 119.52 184.698 119.752 184.314 119.928C183.946 120.104 183.49 120.192 182.946 120.192C182.434 120.192 181.93 120.128 181.434 120C180.954 119.888 180.53 119.656 180.162 119.304V117.552H181.05V118.776C181.354 118.968 181.666 119.096 181.986 119.16C182.306 119.208 182.642 119.232 182.994 119.232C183.234 119.232 183.466 119.2 183.69 119.136C183.914 119.056 184.122 118.944 184.314 118.8C184.49 118.656 184.626 118.488 184.722 118.296C184.834 118.088 184.89 117.84 184.89 117.552C184.89 117.136 184.786 116.816 184.578 116.592C184.37 116.368 184.098 116.192 183.762 116.064C183.442 115.92 183.09 115.792 182.706 115.68C182.322 115.568 181.962 115.432 181.626 115.272C181.29 115.112 181.01 114.888 180.786 114.6C180.578 114.296 180.474 113.88 180.474 113.352C180.474 112.92 180.546 112.552 180.69 112.248C180.85 111.944 181.058 111.688 181.314 111.48C181.57 111.272 181.866 111.12 182.202 111.024C182.538 110.912 182.85 110.856 183.138 110.856C183.346 110.856 183.546 110.872 183.738 110.904C183.93 110.92 184.154 110.968 184.41 111.048C184.618 111.128 184.818 111.224 185.01 111.336C185.202 111.432 185.378 111.552 185.538 111.696V113.448H184.626V112.2C184.402 112.072 184.17 111.976 183.93 111.912C183.69 111.848 183.434 111.816 183.162 111.816C182.954 111.816 182.738 111.848 182.514 111.912C182.306 111.96 182.122 112.04 181.962 112.152C181.818 112.28 181.698 112.44 181.602 112.632C181.506 112.824 181.458 113.056 181.458 113.328C181.458 113.68 181.57 113.96 181.794 114.168C182.034 114.36 182.314 114.52 182.634 114.648C182.97 114.792 183.322 114.928 183.69 115.056C184.074 115.168 184.434 115.32 184.77 115.512C185.09 115.704 185.354 115.952 185.562 116.256C185.786 116.56 185.898 116.968 185.898 117.48C185.898 117.768 185.842 118.072 185.73 118.392C185.634 118.696 185.474 118.976 185.25 119.232ZM192.12 120H187.488V119.064H189.336V111.936H187.488V111H190.32V119.064H192.12V120ZM190.632 107.808C190.632 108.032 190.552 108.224 190.392 108.384C190.232 108.528 190.048 108.6 189.84 108.6C189.648 108.6 189.472 108.528 189.312 108.384C189.152 108.224 189.072 108.032 189.072 107.808C189.072 107.584 189.152 107.4 189.312 107.256C189.472 107.096 189.648 107.016 189.84 107.016C190.048 107.016 190.232 107.096 190.392 107.256C190.552 107.4 190.632 107.584 190.632 107.808ZM201.473 119.136C201.057 119.456 200.601 119.712 200.105 119.904C199.609 120.08 199.073 120.168 198.497 120.168C197.841 120.168 197.225 120.048 196.649 119.808C196.089 119.568 195.601 119.232 195.185 118.8C194.737 118.384 194.393 117.896 194.153 117.336C193.913 116.76 193.793 116.144 193.793 115.488C193.793 114.848 193.913 114.24 194.153 113.664C194.393 113.088 194.729 112.592 195.161 112.176C195.593 111.76 196.089 111.432 196.649 111.192C197.225 110.936 197.841 110.808 198.497 110.808C199.073 110.808 199.617 110.904 200.129 111.096C200.641 111.272 201.097 111.52 201.497 111.84V114.192H200.585V112.416C200.297 112.208 199.977 112.048 199.625 111.936C199.273 111.824 198.897 111.768 198.497 111.768C197.985 111.768 197.505 111.864 197.057 112.056C196.609 112.232 196.225 112.48 195.905 112.8C195.537 113.152 195.257 113.56 195.065 114.024C194.873 114.472 194.777 114.96 194.777 115.488C194.777 116.016 194.873 116.512 195.065 116.976C195.257 117.424 195.529 117.816 195.881 118.152C196.201 118.472 196.585 118.728 197.033 118.92C197.497 119.112 197.985 119.208 198.497 119.208C198.945 119.208 199.369 119.136 199.769 118.992C200.169 118.848 200.529 118.648 200.849 118.392L201.473 119.136ZM211.28 118.8C210.848 119.232 210.336 119.568 209.744 119.808C209.168 120.048 208.552 120.168 207.896 120.168C207.224 120.168 206.6 120.048 206.024 119.808C205.464 119.568 204.976 119.232 204.56 118.8C204.128 118.384 203.792 117.896 203.552 117.336C203.312 116.76 203.192 116.144 203.192 115.488C203.192 114.848 203.312 114.24 203.552 113.664C203.792 113.088 204.128 112.584 204.56 112.152C204.976 111.736 205.472 111.408 206.048 111.168C206.624 110.912 207.24 110.784 207.896 110.784C208.552 110.784 209.168 110.912 209.744 111.168C210.336 111.408 210.848 111.736 211.28 112.152C211.696 112.584 212.024 113.088 212.264 113.664C212.52 114.24 212.648 114.848 212.648 115.488C212.648 116.144 212.52 116.752 212.264 117.312C212.024 117.872 211.696 118.368 211.28 118.8ZM205.256 118.104C205.592 118.456 205.984 118.728 206.432 118.92C206.88 119.112 207.36 119.208 207.872 119.208C208.384 119.208 208.864 119.112 209.312 118.92C209.776 118.728 210.176 118.456 210.512 118.104C210.864 117.784 211.136 117.4 211.328 116.952C211.52 116.504 211.616 116.016 211.616 115.488C211.616 114.992 211.52 114.52 211.328 114.072C211.136 113.608 210.864 113.2 210.512 112.848C210.176 112.512 209.776 112.248 209.312 112.056C208.864 111.864 208.384 111.768 207.872 111.768C207.36 111.768 206.88 111.864 206.432 112.056C205.984 112.248 205.592 112.512 205.256 112.848C204.92 113.2 204.656 113.6 204.464 114.048C204.272 114.496 204.176 114.976 204.176 115.488C204.176 116.016 204.272 116.504 204.464 116.952C204.656 117.4 204.92 117.784 205.256 118.104ZM208.664 108.504H207.872C208.24 107.976 208.6 107.448 208.952 106.92C209.304 106.376 209.664 105.84 210.032 105.312H211.064C210.648 105.84 210.24 106.376 209.84 106.92C209.456 107.448 209.064 107.976 208.664 108.504ZM218.956 120H214.324V119.064H216.1V102.936H214.396V102H217.084V119.064H218.956V120ZM228.741 118.8C228.309 119.232 227.797 119.568 227.205 119.808C226.629 120.048 226.013 120.168 225.357 120.168C224.685 120.168 224.061 120.048 223.485 119.808C222.925 119.568 222.437 119.232 222.021 118.8C221.589 118.384 221.253 117.896 221.013 117.336C220.773 116.76 220.653 116.144 220.653 115.488C220.653 114.848 220.773 114.24 221.013 113.664C221.253 113.088 221.589 112.584 222.021 112.152C222.437 111.736 222.933 111.408 223.509 111.168C224.085 110.912 224.701 110.784 225.357 110.784C226.013 110.784 226.629 110.912 227.205 111.168C227.797 111.408 228.309 111.736 228.741 112.152C229.157 112.584 229.485 113.088 229.725 113.664C229.981 114.24 230.109 114.848 230.109 115.488C230.109 116.144 229.981 116.752 229.725 117.312C229.485 117.872 229.157 118.368 228.741 118.8ZM222.717 118.104C223.053 118.456 223.445 118.728 223.893 118.92C224.341 119.112 224.821 119.208 225.333 119.208C225.845 119.208 226.325 119.112 226.773 118.92C227.237 118.728 227.637 118.456 227.973 118.104C228.325 117.784 228.597 117.4 228.789 116.952C228.981 116.504 229.077 116.016 229.077 115.488C229.077 114.992 228.981 114.52 228.789 114.072C228.597 113.608 228.325 113.2 227.973 112.848C227.637 112.512 227.237 112.248 226.773 112.056C226.325 111.864 225.845 111.768 225.333 111.768C224.821 111.768 224.341 111.864 223.893 112.056C223.445 112.248 223.053 112.512 222.717 112.848C222.381 113.2 222.117 113.6 221.925 114.048C221.733 114.496 221.637 114.976 221.637 115.488C221.637 116.016 221.733 116.504 221.925 116.952C222.117 117.4 222.381 117.784 222.717 118.104ZM232.985 124.608L233.681 123.816C234.017 124.168 234.449 124.448 234.977 124.656C235.505 124.88 236.057 124.992 236.633 124.992C237.129 124.992 237.593 124.888 238.025 124.68C238.473 124.488 238.865 124.2 239.201 123.816C239.521 123.448 239.777 123 239.969 122.472C240.161 121.96 240.257 121.392 240.257 120.768V119.088C240.257 118.928 240.257 118.752 240.257 118.56C240.273 118.368 240.281 118.168 240.281 117.96C240.169 118.264 239.993 118.544 239.753 118.8C239.529 119.056 239.265 119.28 238.961 119.472C238.625 119.696 238.249 119.872 237.833 120C237.417 120.112 236.977 120.168 236.513 120.168C235.841 120.168 235.217 120.048 234.641 119.808C234.081 119.552 233.585 119.208 233.153 118.776C232.721 118.36 232.385 117.872 232.145 117.312C231.905 116.752 231.785 116.144 231.785 115.488C231.785 114.864 231.905 114.264 232.145 113.688C232.385 113.112 232.721 112.608 233.153 112.176C233.585 111.76 234.081 111.432 234.641 111.192C235.217 110.936 235.841 110.808 236.513 110.808C237.409 110.808 238.201 111.032 238.889 111.48C239.577 111.928 240.065 112.472 240.353 113.112C240.353 112.76 240.361 112.416 240.377 112.08C240.393 111.728 240.417 111.368 240.449 111H243.017V111.936H241.241V120.816C241.241 121.616 241.121 122.328 240.881 122.952C240.641 123.592 240.313 124.128 239.897 124.56C239.481 125.008 238.993 125.352 238.433 125.592C237.889 125.848 237.297 125.984 236.657 126C235.889 126 235.193 125.872 234.569 125.616C233.961 125.376 233.433 125.04 232.985 124.608ZM236.513 111.768C235.969 111.768 235.465 111.872 235.001 112.08C234.537 112.272 234.145 112.544 233.825 112.896C233.489 113.232 233.225 113.624 233.033 114.072C232.857 114.504 232.769 114.976 232.769 115.488C232.769 116.016 232.865 116.512 233.057 116.976C233.265 117.424 233.537 117.816 233.873 118.152C234.209 118.488 234.601 118.752 235.049 118.944C235.497 119.12 235.985 119.208 236.513 119.208C237.041 119.208 237.529 119.112 237.977 118.92C238.441 118.712 238.841 118.44 239.177 118.104C239.513 117.784 239.777 117.4 239.969 116.952C240.161 116.504 240.257 116.016 240.257 115.488C240.257 114.96 240.153 114.464 239.945 114C239.737 113.536 239.457 113.128 239.105 112.776C238.769 112.456 238.377 112.208 237.929 112.032C237.481 111.856 237.009 111.768 236.513 111.768ZM255.931 120H253.267V119.016C253.267 118.824 253.267 118.648 253.267 118.488C253.267 118.312 253.267 118.12 253.267 117.912C253.155 118.2 252.979 118.48 252.739 118.752C252.515 119.008 252.243 119.24 251.923 119.448C251.587 119.672 251.203 119.848 250.771 119.976C250.355 120.104 249.907 120.168 249.427 120.168C248.755 120.168 248.131 120.048 247.555 119.808C246.995 119.568 246.499 119.232 246.067 118.8C245.635 118.368 245.299 117.872 245.059 117.312C244.819 116.752 244.699 116.144 244.699 115.488C244.699 114.864 244.819 114.264 245.059 113.688C245.299 113.112 245.635 112.608 246.067 112.176C246.499 111.76 246.995 111.432 247.555 111.192C248.131 110.936 248.755 110.808 249.427 110.808C250.371 110.808 251.179 111.04 251.851 111.504C252.523 111.952 252.995 112.488 253.267 113.112C253.267 112.776 253.275 112.432 253.291 112.08C253.307 111.712 253.331 111.352 253.363 111H254.155V119.064H255.931V120ZM249.427 111.768C248.883 111.768 248.379 111.864 247.915 112.056C247.451 112.248 247.059 112.52 246.739 112.872C246.403 113.208 246.139 113.6 245.947 114.048C245.771 114.496 245.683 114.976 245.683 115.488C245.683 116.032 245.787 116.536 245.995 117C246.203 117.464 246.491 117.864 246.859 118.2C247.195 118.52 247.579 118.768 248.011 118.944C248.443 119.12 248.915 119.208 249.427 119.208C249.939 119.208 250.419 119.12 250.867 118.944C251.315 118.752 251.707 118.488 252.043 118.152C252.395 117.816 252.667 117.424 252.859 116.976C253.067 116.512 253.171 116.016 253.171 115.488C253.171 114.96 253.067 114.472 252.859 114.024C252.667 113.56 252.403 113.16 252.067 112.824C251.715 112.488 251.315 112.232 250.867 112.056C250.419 111.864 249.939 111.768 249.427 111.768Z" fill="black"></path>
<path d="M55.136 81.12H40.352L37.28 90H34.16L46.304 56.4H49.232L61.808 90H58.304L55.136 81.12ZM41.168 78.72H54.272L47.6 60.048L41.168 78.72ZM67.0029 90V56.4H70.2669L82.6029 80.976L94.9389 56.4H98.2029V90H95.1789V61.968L84.2349 83.712H80.9709L70.0269 61.968V90H67.0029ZM124.23 81.12H109.446L106.374 90H103.254L115.398 56.4H118.326L130.902 90H127.398L124.23 81.12ZM110.262 78.72H123.366L116.694 60.048L110.262 78.72ZM158.033 90L138.881 60.72L139.121 90H136.097V56.4H139.601L158.705 85.68L158.513 56.4H161.537V90H158.033ZM167.981 56.4H176.621C183.341 56.4 187.725 59.216 189.773 64.848C190.541 66.896 190.925 69.6 190.925 72.96C190.925 76.288 190.557 79.104 189.821 81.408C189.085 83.68 188.045 85.456 186.701 86.736C185.357 88.016 183.725 88.88 181.805 89.328C179.917 89.776 177.789 90 175.421 90H167.981V56.4ZM171.245 59.04V87.36H175.181C176.845 87.36 178.445 87.216 179.981 86.928C185.101 86.032 187.661 81.28 187.661 72.672C187.661 67.84 186.541 64.272 184.301 61.968C182.349 60.016 179.709 59.04 176.381 59.04H171.245ZM214.98 81.12H200.196L197.124 90H194.004L206.148 56.4H209.076L221.652 90H218.148L214.98 81.12ZM201.012 78.72H214.116L207.444 60.048L201.012 78.72ZM254.758 86.352L264.885 56.4H268.006L256.102 90H252.934L240.598 56.4H243.862L254.758 86.352ZM282.228 90H273.204V87.696L276.084 87.36V59.088L273.444 58.752V56.4H281.988V58.752L279.348 59.088V87.36L282.228 87.696V90ZM307.673 90H289.481V56.4H292.745V87.12H307.913L307.673 90ZM330.806 59.28H316.838V71.904H329.798L329.558 74.784H316.838V87.12H332.006L331.766 90H313.574V56.4H331.046L330.806 59.28ZM355.485 90H337.293V56.4H340.557V87.12H355.725L355.485 90ZM380.777 81.12H365.993L362.921 90H359.801L371.945 56.4H374.873L387.449 90H383.945L380.777 81.12ZM366.809 78.72H379.913L373.241 60.048L366.809 78.72Z" fill="black"></path>
</svg></svg></g></g><defs><clipPath id="SvgjsClipPath1193"><rect width="1000" height="1000" x="0" y="0" rx="150" ry="150"></rect></clipPath></defs></svg>