<svg width="358" height="78" viewBox="0 0 358 78" fill="none" xmlns="http://www.w3.org/2000/svg">
<g clip-path="url(#clip0_2_5)">
<line x1="132" y1="52.75" x2="152" y2="52.75" stroke="black" stroke-width="0.5"/>
<line x1="206" y1="52.75" x2="226" y2="52.75" stroke="black" stroke-width="0.5"/>
<path d="M135.032 76V75.064H136.64V61.936H134.84V61H137.432C137.432 61.368 137.44 61.736 137.456 62.104C137.488 62.456 137.504 62.808 137.504 63.16C137.776 62.536 138.248 61.992 138.92 61.528C139.592 61.064 140.408 60.832 141.368 60.832C142.008 60.832 142.616 60.952 143.192 61.192C143.768 61.432 144.272 61.768 144.704 62.2C145.136 62.632 145.472 63.136 145.712 63.712C145.952 64.272 146.072 64.872 146.072 65.512C146.072 66.152 145.952 66.76 145.712 67.336C145.472 67.912 145.136 68.408 144.704 68.824C144.272 69.24 143.768 69.576 143.192 69.832C142.616 70.072 142.008 70.192 141.368 70.192C140.888 70.192 140.44 70.128 140.024 70C139.608 69.888 139.24 69.72 138.92 69.496C138.584 69.288 138.304 69.064 138.08 68.824C137.872 68.568 137.712 68.296 137.6 68.008C137.6 68.168 137.6 68.328 137.6 68.488C137.616 68.632 137.624 68.776 137.624 68.92V75.064H139.664V76H135.032ZM141.368 61.792C140.824 61.792 140.32 61.888 139.856 62.08C139.408 62.272 139.016 62.536 138.68 62.872C138.344 63.208 138.08 63.608 137.888 64.072C137.712 64.52 137.624 65 137.624 65.512C137.624 66.04 137.72 66.536 137.912 67C138.104 67.448 138.376 67.848 138.728 68.2C139.064 68.52 139.456 68.776 139.904 68.968C140.352 69.144 140.84 69.232 141.368 69.232C141.864 69.232 142.336 69.144 142.784 68.968C143.232 68.776 143.624 68.52 143.96 68.2C144.312 67.864 144.584 67.464 144.776 67C144.984 66.536 145.088 66.04 145.088 65.512C145.088 64.968 144.984 64.464 144.776 64C144.584 63.536 144.312 63.136 143.96 62.8C143.624 62.496 143.232 62.256 142.784 62.08C142.336 61.888 141.864 61.792 141.368 61.792ZM153.25 69.232C153.01 69.52 152.698 69.752 152.314 69.928C151.946 70.104 151.49 70.192 150.946 70.192C150.434 70.192 149.93 70.128 149.434 70C148.954 69.888 148.53 69.656 148.162 69.304V67.552H149.05V68.776C149.354 68.968 149.666 69.096 149.986 69.16C150.306 69.208 150.642 69.232 150.994 69.232C151.234 69.232 151.466 69.2 151.69 69.136C151.914 69.056 152.122 68.944 152.314 68.8C152.49 68.656 152.626 68.488 152.722 68.296C152.834 68.088 152.89 67.84 152.89 67.552C152.89 67.136 152.786 66.816 152.578 66.592C152.37 66.368 152.098 66.192 151.762 66.064C151.442 65.92 151.09 65.792 150.706 65.68C150.322 65.568 149.962 65.432 149.626 65.272C149.29 65.112 149.01 64.888 148.786 64.6C148.578 64.296 148.474 63.88 148.474 63.352C148.474 62.92 148.546 62.552 148.69 62.248C148.85 61.944 149.058 61.688 149.314 61.48C149.57 61.272 149.866 61.12 150.202 61.024C150.538 60.912 150.85 60.856 151.138 60.856C151.346 60.856 151.546 60.872 151.738 60.904C151.93 60.92 152.154 60.968 152.41 61.048C152.618 61.128 152.818 61.224 153.01 61.336C153.202 61.432 153.378 61.552 153.538 61.696V63.448H152.626V62.2C152.402 62.072 152.17 61.976 151.93 61.912C151.69 61.848 151.434 61.816 151.162 61.816C150.954 61.816 150.738 61.848 150.514 61.912C150.306 61.96 150.122 62.04 149.962 62.152C149.818 62.28 149.698 62.44 149.602 62.632C149.506 62.824 149.458 63.056 149.458 63.328C149.458 63.68 149.57 63.96 149.794 64.168C150.034 64.36 150.314 64.52 150.634 64.648C150.97 64.792 151.322 64.928 151.69 65.056C152.074 65.168 152.434 65.32 152.77 65.512C153.09 65.704 153.354 65.952 153.562 66.256C153.786 66.56 153.898 66.968 153.898 67.48C153.898 67.768 153.842 68.072 153.73 68.392C153.634 68.696 153.474 68.976 153.25 69.232ZM160.12 70H155.488V69.064H157.336V61.936H155.488V61H158.32V69.064H160.12V70ZM158.632 57.808C158.632 58.032 158.552 58.224 158.392 58.384C158.232 58.528 158.048 58.6 157.84 58.6C157.648 58.6 157.472 58.528 157.312 58.384C157.152 58.224 157.072 58.032 157.072 57.808C157.072 57.584 157.152 57.4 157.312 57.256C157.472 57.096 157.648 57.016 157.84 57.016C158.048 57.016 158.232 57.096 158.392 57.256C158.552 57.4 158.632 57.584 158.632 57.808ZM169.473 69.136C169.057 69.456 168.601 69.712 168.105 69.904C167.609 70.08 167.073 70.168 166.497 70.168C165.841 70.168 165.225 70.048 164.649 69.808C164.089 69.568 163.601 69.232 163.185 68.8C162.737 68.384 162.393 67.896 162.153 67.336C161.913 66.76 161.793 66.144 161.793 65.488C161.793 64.848 161.913 64.24 162.153 63.664C162.393 63.088 162.729 62.592 163.161 62.176C163.593 61.76 164.089 61.432 164.649 61.192C165.225 60.936 165.841 60.808 166.497 60.808C167.073 60.808 167.617 60.904 168.129 61.096C168.641 61.272 169.097 61.52 169.497 61.84V64.192H168.585V62.416C168.297 62.208 167.977 62.048 167.625 61.936C167.273 61.824 166.897 61.768 166.497 61.768C165.985 61.768 165.505 61.864 165.057 62.056C164.609 62.232 164.225 62.48 163.905 62.8C163.537 63.152 163.257 63.56 163.065 64.024C162.873 64.472 162.777 64.96 162.777 65.488C162.777 66.016 162.873 66.512 163.065 66.976C163.257 67.424 163.529 67.816 163.881 68.152C164.201 68.472 164.585 68.728 165.033 68.92C165.497 69.112 165.985 69.208 166.497 69.208C166.945 69.208 167.369 69.136 167.769 68.992C168.169 68.848 168.529 68.648 168.849 68.392L169.473 69.136ZM179.28 68.8C178.848 69.232 178.336 69.568 177.744 69.808C177.168 70.048 176.552 70.168 175.896 70.168C175.224 70.168 174.6 70.048 174.024 69.808C173.464 69.568 172.976 69.232 172.56 68.8C172.128 68.384 171.792 67.896 171.552 67.336C171.312 66.76 171.192 66.144 171.192 65.488C171.192 64.848 171.312 64.24 171.552 63.664C171.792 63.088 172.128 62.584 172.56 62.152C172.976 61.736 173.472 61.408 174.048 61.168C174.624 60.912 175.24 60.784 175.896 60.784C176.552 60.784 177.168 60.912 177.744 61.168C178.336 61.408 178.848 61.736 179.28 62.152C179.696 62.584 180.024 63.088 180.264 63.664C180.52 64.24 180.648 64.848 180.648 65.488C180.648 66.144 180.52 66.752 180.264 67.312C180.024 67.872 179.696 68.368 179.28 68.8ZM173.256 68.104C173.592 68.456 173.984 68.728 174.432 68.92C174.88 69.112 175.36 69.208 175.872 69.208C176.384 69.208 176.864 69.112 177.312 68.92C177.776 68.728 178.176 68.456 178.512 68.104C178.864 67.784 179.136 67.4 179.328 66.952C179.52 66.504 179.616 66.016 179.616 65.488C179.616 64.992 179.52 64.52 179.328 64.072C179.136 63.608 178.864 63.2 178.512 62.848C178.176 62.512 177.776 62.248 177.312 62.056C176.864 61.864 176.384 61.768 175.872 61.768C175.36 61.768 174.88 61.864 174.432 62.056C173.984 62.248 173.592 62.512 173.256 62.848C172.92 63.2 172.656 63.6 172.464 64.048C172.272 64.496 172.176 64.976 172.176 65.488C172.176 66.016 172.272 66.504 172.464 66.952C172.656 67.4 172.92 67.784 173.256 68.104ZM176.664 58.504H175.872C176.24 57.976 176.6 57.448 176.952 56.92C177.304 56.376 177.664 55.84 178.032 55.312H179.064C178.648 55.84 178.24 56.376 177.84 56.92C177.456 57.448 177.064 57.976 176.664 58.504ZM186.956 70H182.324V69.064H184.1V52.936H182.396V52H185.084V69.064H186.956V70ZM196.741 68.8C196.309 69.232 195.797 69.568 195.205 69.808C194.629 70.048 194.013 70.168 193.357 70.168C192.685 70.168 192.061 70.048 191.485 69.808C190.925 69.568 190.437 69.232 190.021 68.8C189.589 68.384 189.253 67.896 189.013 67.336C188.773 66.76 188.653 66.144 188.653 65.488C188.653 64.848 188.773 64.24 189.013 63.664C189.253 63.088 189.589 62.584 190.021 62.152C190.437 61.736 190.933 61.408 191.509 61.168C192.085 60.912 192.701 60.784 193.357 60.784C194.013 60.784 194.629 60.912 195.205 61.168C195.797 61.408 196.309 61.736 196.741 62.152C197.157 62.584 197.485 63.088 197.725 63.664C197.981 64.24 198.109 64.848 198.109 65.488C198.109 66.144 197.981 66.752 197.725 67.312C197.485 67.872 197.157 68.368 196.741 68.8ZM190.717 68.104C191.053 68.456 191.445 68.728 191.893 68.92C192.341 69.112 192.821 69.208 193.333 69.208C193.845 69.208 194.325 69.112 194.773 68.92C195.237 68.728 195.637 68.456 195.973 68.104C196.325 67.784 196.597 67.4 196.789 66.952C196.981 66.504 197.077 66.016 197.077 65.488C197.077 64.992 196.981 64.52 196.789 64.072C196.597 63.608 196.325 63.2 195.973 62.848C195.637 62.512 195.237 62.248 194.773 62.056C194.325 61.864 193.845 61.768 193.333 61.768C192.821 61.768 192.341 61.864 191.893 62.056C191.445 62.248 191.053 62.512 190.717 62.848C190.381 63.2 190.117 63.6 189.925 64.048C189.733 64.496 189.637 64.976 189.637 65.488C189.637 66.016 189.733 66.504 189.925 66.952C190.117 67.4 190.381 67.784 190.717 68.104ZM200.985 74.608L201.681 73.816C202.017 74.168 202.449 74.448 202.977 74.656C203.505 74.88 204.057 74.992 204.633 74.992C205.129 74.992 205.593 74.888 206.025 74.68C206.473 74.488 206.865 74.2 207.201 73.816C207.521 73.448 207.777 73 207.969 72.472C208.161 71.96 208.257 71.392 208.257 70.768V69.088C208.257 68.928 208.257 68.752 208.257 68.56C208.273 68.368 208.281 68.168 208.281 67.96C208.169 68.264 207.993 68.544 207.753 68.8C207.529 69.056 207.265 69.28 206.961 69.472C206.625 69.696 206.249 69.872 205.833 70C205.417 70.112 204.977 70.168 204.513 70.168C203.841 70.168 203.217 70.048 202.641 69.808C202.081 69.552 201.585 69.208 201.153 68.776C200.721 68.36 200.385 67.872 200.145 67.312C199.905 66.752 199.785 66.144 199.785 65.488C199.785 64.864 199.905 64.264 200.145 63.688C200.385 63.112 200.721 62.608 201.153 62.176C201.585 61.76 202.081 61.432 202.641 61.192C203.217 60.936 203.841 60.808 204.513 60.808C205.409 60.808 206.201 61.032 206.889 61.48C207.577 61.928 208.065 62.472 208.353 63.112C208.353 62.76 208.361 62.416 208.377 62.08C208.393 61.728 208.417 61.368 208.449 61H211.017V61.936H209.241V70.816C209.241 71.616 209.121 72.328 208.881 72.952C208.641 73.592 208.313 74.128 207.897 74.56C207.481 75.008 206.993 75.352 206.433 75.592C205.889 75.848 205.297 75.984 204.657 76C203.889 76 203.193 75.872 202.569 75.616C201.961 75.376 201.433 75.04 200.985 74.608ZM204.513 61.768C203.969 61.768 203.465 61.872 203.001 62.08C202.537 62.272 202.145 62.544 201.825 62.896C201.489 63.232 201.225 63.624 201.033 64.072C200.857 64.504 200.769 64.976 200.769 65.488C200.769 66.016 200.865 66.512 201.057 66.976C201.265 67.424 201.537 67.816 201.873 68.152C202.209 68.488 202.601 68.752 203.049 68.944C203.497 69.12 203.985 69.208 204.513 69.208C205.041 69.208 205.529 69.112 205.977 68.92C206.441 68.712 206.841 68.44 207.177 68.104C207.513 67.784 207.777 67.4 207.969 66.952C208.161 66.504 208.257 66.016 208.257 65.488C208.257 64.96 208.153 64.464 207.945 64C207.737 63.536 207.457 63.128 207.105 62.776C206.769 62.456 206.377 62.208 205.929 62.032C205.481 61.856 205.009 61.768 204.513 61.768ZM223.931 70H221.267V69.016C221.267 68.824 221.267 68.648 221.267 68.488C221.267 68.312 221.267 68.12 221.267 67.912C221.155 68.2 220.979 68.48 220.739 68.752C220.515 69.008 220.243 69.24 219.923 69.448C219.587 69.672 219.203 69.848 218.771 69.976C218.355 70.104 217.907 70.168 217.427 70.168C216.755 70.168 216.131 70.048 215.555 69.808C214.995 69.568 214.499 69.232 214.067 68.8C213.635 68.368 213.299 67.872 213.059 67.312C212.819 66.752 212.699 66.144 212.699 65.488C212.699 64.864 212.819 64.264 213.059 63.688C213.299 63.112 213.635 62.608 214.067 62.176C214.499 61.76 214.995 61.432 215.555 61.192C216.131 60.936 216.755 60.808 217.427 60.808C218.371 60.808 219.179 61.04 219.851 61.504C220.523 61.952 220.995 62.488 221.267 63.112C221.267 62.776 221.275 62.432 221.291 62.08C221.307 61.712 221.331 61.352 221.363 61H222.155V69.064H223.931V70ZM217.427 61.768C216.883 61.768 216.379 61.864 215.915 62.056C215.451 62.248 215.059 62.52 214.739 62.872C214.403 63.208 214.139 63.6 213.947 64.048C213.771 64.496 213.683 64.976 213.683 65.488C213.683 66.032 213.787 66.536 213.995 67C214.203 67.464 214.491 67.864 214.859 68.2C215.195 68.52 215.579 68.768 216.011 68.944C216.443 69.12 216.915 69.208 217.427 69.208C217.939 69.208 218.419 69.12 218.867 68.944C219.315 68.752 219.707 68.488 220.043 68.152C220.395 67.816 220.667 67.424 220.859 66.976C221.067 66.512 221.171 66.016 221.171 65.488C221.171 64.96 221.067 64.472 220.859 64.024C220.667 63.56 220.403 63.16 220.067 62.824C219.715 62.488 219.315 62.232 218.867 62.056C218.419 61.864 217.939 61.768 217.427 61.768Z" fill="black"/>
<path d="M23.136 31.12H8.352L5.28 40H2.16L14.304 6.4H17.232L29.808 40H26.304L23.136 31.12ZM9.168 28.72H22.272L15.6 10.048L9.168 28.72ZM35.0029 40V6.4H38.2669L50.6029 30.976L62.9389 6.4H66.2029V40H63.1789V11.968L52.2349 33.712H48.9709L38.0269 11.968V40H35.0029ZM92.2298 31.12H77.4458L74.3738 40H71.2538L83.3978 6.4H86.3258L98.9018 40H95.3978L92.2298 31.12ZM78.2618 28.72H91.3658L84.6938 10.048L78.2618 28.72ZM126.033 40L106.881 10.72L107.121 40H104.097V6.4H107.601L126.705 35.68L126.513 6.4H129.537V40H126.033ZM135.981 6.4H144.621C151.341 6.4 155.725 9.216 157.773 14.848C158.541 16.896 158.925 19.6 158.925 22.96C158.925 26.288 158.557 29.104 157.821 31.408C157.085 33.68 156.045 35.456 154.701 36.736C153.357 38.016 151.725 38.88 149.805 39.328C147.917 39.776 145.789 40 143.421 40H135.981V6.4ZM139.245 9.04V37.36H143.181C144.845 37.36 146.445 37.216 147.981 36.928C153.101 36.032 155.661 31.28 155.661 22.672C155.661 17.84 154.541 14.272 152.301 11.968C150.349 10.016 147.709 9.04 144.381 9.04H139.245ZM182.98 31.12H168.196L165.124 40H162.004L174.148 6.4H177.076L189.652 40H186.148L182.98 31.12ZM169.012 28.72H182.116L175.444 10.048L169.012 28.72ZM222.758 36.352L232.885 6.4H236.006L224.102 40H220.934L208.598 6.4H211.862L222.758 36.352ZM250.228 40H241.204V37.696L244.084 37.36V9.088L241.444 8.752V6.4H249.988V8.752L247.348 9.088V37.36L250.228 37.696V40ZM275.673 40H257.481V6.4H260.745V37.12H275.913L275.673 40ZM298.806 9.28H284.838V21.904H297.798L297.558 24.784H284.838V37.12H300.006L299.766 40H281.574V6.4H299.046L298.806 9.28ZM323.485 40H305.293V6.4H308.557V37.12H323.725L323.485 40ZM348.777 31.12H333.993L330.921 40H327.801L339.945 6.4H342.873L355.449 40H351.945L348.777 31.12ZM334.809 28.72H347.913L341.241 10.048L334.809 28.72Z" fill="black"/>
</g>
<defs>
<clipPath id="clip0_2_5">
<rect width="358" height="78" fill="white"/>
</clipPath>
</defs>
</svg>
